<?xml version="1.0" encoding="UTF-8"?>
<svg xmlns="http://www.w3.org/2000/svg" viewBox="0 0 573 573" width="573" height="573">
  <g transform="translate(0 98)">
    <path fill="#0f3648" fill-rule="evenodd" d="M552,342L549,344L547,348L547,353L551,356L556,356L561,350L561,346L557,342ZM279,279L275,279L273,281L271,287L268,307L268,319L265,322L247,323L245,321L245,315L248,302L248,294L247,292L243,288L239,286L235,286L232,290L228,318L228,336L231,355L232,357L236,361L240,363L245,363L246,361L246,358L244,352L244,344L246,342L249,341L261,339L268,340L268,347L271,360L275,364L280,366L282,366L286,362L284,354L284,336L290,331L290,324L287,322L286,304L287,297L289,293L289,290L286,284ZM338,278L330,280L325,283L322,286L315,296L314,300L311,305L308,316L308,328L311,339L314,343L315,346L319,350L322,351L324,353L334,356L348,356L355,353L357,351L361,349L370,337L373,327L373,311L371,303L368,296L364,290L356,282L350,279L345,278ZM347,291L352,295L355,301L356,306L356,316L355,321L351,331L349,334L342,341L336,344L330,344L326,340L324,335L324,323L327,313L331,305L333,303L334,300L340,293L344,291ZM508,271L500,270L479,270L476,271L473,274L473,278L476,285L478,287L478,293L475,308L474,318L474,333L475,341L477,345L482,349L489,349L495,347L498,345L500,345L503,343L505,343L509,341L511,339L516,337L520,334L532,322L537,312L537,297L531,285L522,277L514,273ZM518,290L523,295L523,303L520,309L512,317L505,322L493,328L488,327L488,314L489,305L491,295L493,290L496,287L510,287ZM419,270L412,272L409,274L401,282L398,286L397,289L395,291L389,305L389,324L390,328L392,331L392,333L394,336L402,343L406,344L412,347L418,348L426,348L430,347L438,343L448,333L450,330L450,328L452,325L454,315L454,300L451,290L446,281L439,274L433,271L429,270ZM432,284L435,287L438,295L438,306L436,313L434,316L434,318L432,320L431,323L423,331L415,335L410,335L405,331L403,325L403,320L405,311L410,301L418,290L421,287L426,284ZM496,159L497,255L509,255L519,256L546,261L562,262L561,244L525,243L524,159ZM475,158L411,160L411,253L478,252L477,245L440,244L441,225L472,225L473,223L473,204L472,202L440,201L441,184L457,183L475,184L477,183L477,160ZM286,159L286,162L288,168L290,171L292,179L294,182L294,184L298,192L300,200L302,203L303,208L305,211L306,216L308,219L309,224L313,232L315,240L319,248L319,250L322,256L322,258L324,263L329,264L349,261L355,259L361,259L363,257L364,252L366,249L367,244L369,241L370,236L372,233L373,228L375,225L376,220L378,217L379,212L381,209L382,204L384,201L385,196L387,193L388,188L390,185L391,180L393,177L394,172L396,169L397,164L399,161L399,159L373,158L370,159L368,163L368,166L366,169L365,174L363,177L359,191L357,194L357,197L353,209L351,212L351,214L345,230L341,229L339,225L336,214L334,211L328,191L326,188L324,180L322,177L321,171L319,168L319,166L316,159L314,158ZM227,159L226,163L224,166L224,168L222,171L221,176L217,184L216,189L214,192L213,197L210,202L210,204L207,210L206,215L203,220L202,225L199,231L199,233L195,241L194,246L191,252L191,254L187,262L188,265L203,267L216,266L216,264L218,261L218,259L221,255L261,255L263,257L265,261L266,266L268,268L296,267L296,262L294,259L294,257L290,249L290,247L287,241L286,236L282,228L282,226L279,220L279,218L277,215L276,210L271,200L270,195L268,192L267,187L265,184L264,179L262,176L262,174L260,171L260,169L257,163L256,159L254,158L236,158ZM239,201L244,201L246,209L248,212L250,220L253,226L252,232L229,231L229,228L232,222L232,220L235,211L237,208L237,206ZM90,159L90,184L96,189L103,191L111,191L113,190L113,188L109,181L110,176L116,176L121,181L129,187L149,186L151,187L152,191L148,195L141,197L138,197L130,200L130,203L127,215L125,217L121,219L117,218L118,210L117,204L112,204L106,206L98,210L90,218L90,253L92,254L118,255L119,237L122,237L124,239L127,245L136,258L141,258L148,259L154,261L173,263L170,257L165,251L151,230L151,227L161,218L164,214L164,212L167,207L168,202L168,190L167,185L164,179L164,177L157,168L147,162L136,159L124,158L92,158ZM13,158L11,159L11,184L27,184L29,186L30,253L57,253L58,251L58,186L60,184L76,184L76,159L36,158L21,159ZM327,30L323,34L306,58L305,61L299,68L291,80L290,83L287,86L287,88L285,90L283,94L283,98L288,102L296,104L299,106L305,107L314,112L320,119L321,121L321,129L318,135L313,140L312,144L410,140L407,137L399,124L396,121L376,92L373,86L364,73L356,63L355,60L337,34L333,30L331,29ZM258,11L256,10L253,10L249,12L245,17L242,23L239,26L222,51L219,57L216,60L215,63L212,66L196,91L193,94L166,134L165,137L162,140L161,144L247,144L262,143L273,140L282,135L285,131L285,124L284,122L280,118L274,115L272,115L263,110L258,105L257,103L257,99L261,92L267,86L280,75L289,69L294,64L294,60L290,56L279,39L264,18Z"/>
  </g>
</svg>
